<svg width="24" height="24" viewBox="0 0 24 24" fill="none" xmlns="http://www.w3.org/2000/svg">
<g clip-path="url(#clip0_5_55)">
<path d="M15 22C14.7348 22 14.4804 21.8947 14.2929 21.7071C14.1054 21.5196 14 21.2652 14 21V15C14 14.7348 14.1054 14.4804 14.2929 14.2929C14.4804 14.1054 14.7348 14 15 14C15.2652 14 15.5196 14.1054 15.7071 14.2929C15.8946 14.4804 16 14.7348 16 15V21C16 21.2652 15.8946 21.5196 15.7071 21.7071C15.5196 21.8947 15.2652 22 15 22ZM9 22C8.73478 22 8.48043 21.8947 8.29289 21.7071C8.10536 21.5196 8 21.2652 8 21V15C8 14.7348 8.10536 14.4804 8.29289 14.2929C8.48043 14.1054 8.73478 14 9 14C9.26522 14 9.51957 14.1054 9.70711 14.2929C9.89464 14.4804 10 14.7348 10 15V21C10 21.2652 9.89464 21.5196 9.70711 21.7071C9.51957 21.8947 9.26522 22 9 22ZM12 24C11.7348 24 11.4804 23.8947 11.2929 23.7071C11.1054 23.5196 11 23.2652 11 23V17C11 16.7348 11.1054 16.4804 11.2929 16.2929C11.4804 16.1054 11.7348 16 12 16C12.2652 16 12.5196 16.1054 12.7071 16.2929C12.8946 16.4804 13 16.7348 13 17V23C13 23.2652 12.8946 23.5196 12.7071 23.7071C12.5196 23.8947 12.2652 24 12 24ZM6 18C3.794 18 2 16.206 2 14C2.00103 13.1132 2.2962 12.2518 2.83927 11.5508C3.38234 10.8497 4.14262 10.3486 5.001 10.126L5 10C5 6.69101 7.691 4.00001 11 4.00001C12.2425 3.9981 13.4546 4.38388 14.4673 5.10359C15.4801 5.82329 16.2431 6.84105 16.65 8.01501C19.586 7.77101 22 10.128 22 13C21.9982 14.0932 21.639 15.1558 20.9772 16.0258C20.3153 16.8959 19.3871 17.5256 18.334 17.819C18.2061 17.8585 18.0716 17.8719 17.9384 17.8585C17.8052 17.845 17.6761 17.805 17.5587 17.7407C17.4412 17.6764 17.3379 17.5892 17.2548 17.4842C17.1717 17.3793 17.1106 17.2587 17.075 17.1297C17.0393 17.0006 17.03 16.8658 17.0474 16.733C17.0649 16.6003 17.1089 16.4725 17.1767 16.357C17.2445 16.2416 17.3347 16.141 17.4422 16.0611C17.5496 15.9812 17.6719 15.9237 17.802 15.892C18.4335 15.7154 18.99 15.3373 19.3868 14.8152C19.7836 14.2932 19.9989 13.6557 20 13C20 11.346 18.654 10 17 10C16.758 10 16.501 10.041 16.189 10.13L15.115 10.436L14.93 9.33401C14.7768 8.40247 14.2974 7.55574 13.5775 6.94501C12.8576 6.33429 11.9441 5.99935 11 6.00001C10.4064 6.00067 9.8203 6.13332 9.28424 6.38836C8.74817 6.6434 8.27553 7.01445 7.90052 7.47464C7.52552 7.93483 7.25753 8.47266 7.11596 9.04917C6.9744 9.62568 6.9628 10.2265 7.082 10.808L7.33 12.01L5.908 11.994C4.897 12 4 12.897 4 14C4 15.103 4.897 16 6 16C6.26522 16 6.51957 16.1054 6.70711 16.2929C6.89464 16.4804 7 16.7348 7 17C7 17.2652 6.89464 17.5196 6.70711 17.7071C6.51957 17.8947 6.26522 18 6 18Z" fill="#CFD0D0"/>
</g>
<defs>
<clipPath id="clip0_5_55">
<rect width="24" height="24" fill="white"/>
</clipPath>
</defs>
</svg>
