<svg width="24" height="24" viewBox="0 0 24 24" fill="none" xmlns="http://www.w3.org/2000/svg">
<path d="M17 19H6C3.794 19 2 17.206 2 15C2.00103 14.1132 2.2962 13.2518 2.83927 12.5508C3.38234 11.8497 4.14262 11.3486 5.001 11.126L5 11C5 7.69101 7.691 5.00001 11 5.00001C12.2425 4.99795 13.4547 5.38368 14.4675 6.1034C15.4803 6.82313 16.2433 7.84097 16.65 9.01501C19.592 8.76901 22 11.128 22 14C22 16.757 19.757 19 17 19ZM5.905 12.994C4.897 13 4 13.897 4 15C4 16.103 4.897 17 6 17H17C18.654 17 20 15.654 20 14C20 12.346 18.654 11 17 11C16.757 11 16.5 11.041 16.19 11.13L15.115 11.437L14.929 10.334C14.7762 9.40247 14.2971 8.55563 13.5773 7.94486C12.8575 7.33409 11.944 6.99918 11 7.00001C10.4061 7.00058 9.81967 7.13328 9.28335 7.38849C8.74702 7.64371 8.2742 8.01504 7.89914 8.47559C7.52407 8.93614 7.25617 9.47436 7.11484 10.0513C6.97351 10.6281 6.96229 11.2292 7.082 11.811L7.326 13.01L5.905 12.994V12.994Z" fill="#CFD0D0"/>
</svg>
