<svg width="25" height="25" viewBox="0 0 25 25" fill="none" xmlns="http://www.w3.org/2000/svg">
<g clip-path="url(#clip0_7_105)">
<path d="M13.5417 8.64583C13.5417 6.63542 11.9063 5 9.89584 5C7.77709 5 6.51043 6.58854 6.51043 8.125H8.59376C8.59376 7.69271 8.99793 7.08333 9.89584 7.08333C10.7573 7.08333 11.4583 7.78437 11.4583 8.64583C11.4583 9.50729 10.7573 10.2083 9.89584 10.2083H2.08334V12.2917H9.89584C11.9063 12.2917 13.5417 10.6562 13.5417 8.64583ZM16.1458 18.5417H8.33334V20.625H16.1458C17.0073 20.625 17.7083 21.326 17.7083 22.1875C17.7083 23.049 17.0073 23.75 16.1458 23.75C15.2479 23.75 14.8438 23.1406 14.8438 22.7083H12.7604C12.7604 24.2448 14.0271 25.8333 16.1458 25.8333C18.1563 25.8333 19.7917 24.1979 19.7917 22.1875C19.7917 20.1771 18.1563 18.5417 16.1458 18.5417Z" fill="white"/>
<path d="M18.75 9C16.4521 9 14.5833 10.8687 14.5833 13.1667H16.6667C16.6667 12.0177 17.6011 11.0833 18.75 11.0833C19.899 11.0833 20.8333 12.0177 20.8333 13.1667C20.8333 14.3156 19.899 15.25 18.75 15.25H2.08334V17.3333H18.75C21.0479 17.3333 22.9167 15.4646 22.9167 13.1667C22.9167 10.8687 21.0479 9 18.75 9ZM2.08334 19.4167H6.25001V21.5H2.08334V19.4167Z" fill="white"/>
</g>
<defs>
<clipPath id="clip0_7_105">
<rect width="25" height="25" fill="white"/>
</clipPath>
</defs>
</svg>
