<svg width="17" height="22" viewBox="0 0 17 22" fill="none" xmlns="http://www.w3.org/2000/svg">
<path d="M9.6758 10.9375L16.0508 5.27109C16.1691 5.16579 16.2526 5.027 16.2903 4.87314C16.3279 4.71927 16.3179 4.55761 16.2615 4.40957C16.2052 4.26153 16.1052 4.13412 15.9748 4.04423C15.8443 3.95434 15.6897 3.90622 15.5313 3.90625H13.1875V0H11.625V5.46875H13.4766L8.50002 9.89219L3.52345 5.46875H5.37502V0H3.81252V3.90625H1.46877C1.31037 3.90622 1.1557 3.95434 1.02528 4.04423C0.894856 4.13412 0.794837 4.26153 0.738487 4.40957C0.682136 4.55761 0.672116 4.71927 0.709754 4.87314C0.747392 5.027 0.83091 5.16579 0.949234 5.27109L7.32423 10.9375L0.949234 16.6039C0.83091 16.7092 0.747392 16.848 0.709754 17.0019C0.672116 17.1557 0.682136 17.3174 0.738487 17.4654C0.794837 17.6135 0.894856 17.7409 1.02528 17.8308C1.1557 17.9207 1.31037 17.9688 1.46877 17.9688H3.81252V21.875H5.37502V16.4062H3.52345L8.50002 11.9828L13.4766 16.4062H11.625V21.875H13.1875V17.9688H15.5313C15.6896 17.9686 15.8442 17.9204 15.9745 17.8304C16.1048 17.7405 16.2046 17.6131 16.2609 17.4651C16.3172 17.3171 16.3271 17.1555 16.2894 17.0017C16.2518 16.8479 16.1683 16.7092 16.05 16.6039L9.6758 10.9375Z" fill="white"/>
</svg>
