<svg width="23" height="16" viewBox="0 0 23 16" fill="none" xmlns="http://www.w3.org/2000/svg">
<path d="M11.5 2.08333C13.4154 2.07697 15.2936 2.61123 16.9189 3.62471C18.5442 4.6382 19.8504 6.08975 20.6875 7.8125C18.9688 11.3229 15.4479 13.5417 11.5 13.5417C7.5521 13.5417 4.03127 11.3229 2.31252 7.8125C3.14962 6.08975 4.45589 4.6382 6.08114 3.62471C7.7064 2.61123 9.58467 2.07697 11.5 2.08333M11.5 0C6.29169 0 1.84377 3.23958 0.041687 7.8125C1.84377 12.3854 6.29169 15.625 11.5 15.625C16.7084 15.625 21.1563 12.3854 22.9584 7.8125C21.1563 3.23958 16.7084 0 11.5 0ZM11.5 5.20833C12.1907 5.20833 12.8531 5.4827 13.3414 5.97108C13.8298 6.45945 14.1042 7.12183 14.1042 7.8125C14.1042 8.50317 13.8298 9.16555 13.3414 9.65392C12.8531 10.1423 12.1907 10.4167 11.5 10.4167C10.8094 10.4167 10.147 10.1423 9.6586 9.65392C9.17022 9.16555 8.89585 8.50317 8.89585 7.8125C8.89585 7.12183 9.17022 6.45945 9.6586 5.97108C10.147 5.4827 10.8094 5.20833 11.5 5.20833M11.5 3.125C8.91669 3.125 6.81252 5.22917 6.81252 7.8125C6.81252 10.3958 8.91669 12.5 11.5 12.5C14.0834 12.5 16.1875 10.3958 16.1875 7.8125C16.1875 5.22917 14.0834 3.125 11.5 3.125Z" fill="white"/>
</svg>
