<svg width="17" height="20" viewBox="0 0 17 20" fill="none" xmlns="http://www.w3.org/2000/svg">
<path d="M8.50002 19.7917C6.19099 19.7917 4.22502 18.9889 2.6021 17.3833C0.978492 15.7771 0.166687 13.8368 0.166687 11.5625C0.166687 10.4167 0.379534 9.35312 0.805229 8.37187C1.23023 7.39132 1.83335 6.52778 2.6146 5.78125L8.50002 0L14.3854 5.78125C15.1667 6.52778 15.7702 7.39132 16.1959 8.37187C16.6209 9.35312 16.8334 10.4167 16.8334 11.5625C16.8334 13.8368 16.0219 15.7771 14.399 17.3833C12.7754 18.9889 10.809 19.7917 8.50002 19.7917ZM8.50002 17.7083C10.2361 17.7083 11.7118 17.1049 12.9271 15.8979C14.1424 14.6917 14.75 13.2465 14.75 11.5625C14.75 10.7292 14.5979 9.95208 14.2938 9.23125C13.9903 8.51111 13.5347 7.86458 12.9271 7.29167L8.50002 2.91667L4.07294 7.29167C3.4653 7.86458 3.00974 8.51111 2.70627 9.23125C2.4021 9.95208 2.25002 10.7292 2.25002 11.5625C2.25002 13.2465 2.85766 14.6917 4.07294 15.8979C5.28821 17.1049 6.76391 17.7083 8.50002 17.7083Z" fill="white"/>
</svg>
