<svg width="24" height="24" viewBox="0 0 24 24" fill="none" xmlns="http://www.w3.org/2000/svg">
<path d="M13 4.00005L12 6.93405L11 4.00005C10.9461 3.84115 10.9308 3.67168 10.9554 3.50569C10.9801 3.33971 11.0439 3.18198 11.1417 3.04559C11.2394 2.90919 11.3683 2.79806 11.5175 2.72139C11.6668 2.64473 11.8322 2.60474 12 2.60474C12.1678 2.60474 12.3332 2.64473 12.4825 2.72139C12.6317 2.79806 12.7606 2.90919 12.8583 3.04559C12.9561 3.18198 13.0199 3.33971 13.0445 3.50569C13.0692 3.67168 13.0539 3.84115 13 4.00005ZM3.99999 11.0001L6.93399 12.0001L3.99999 13.0001C3.84109 13.054 3.67162 13.0692 3.50563 13.0446C3.33965 13.02 3.18192 12.9561 3.04553 12.8584C2.90913 12.7606 2.798 12.6318 2.72133 12.4825C2.64467 12.3332 2.60468 12.1679 2.60468 12.0001C2.60468 11.8322 2.64467 11.6669 2.72133 11.5176C2.798 11.3683 2.90913 11.2395 3.04553 11.1417C3.18192 11.044 3.33965 10.9801 3.50563 10.9555C3.67162 10.9309 3.84109 10.9461 3.99999 11.0001ZM11 20.0001L12 17.0661L13 20.0001C13.0539 20.159 13.0692 20.3284 13.0445 20.4944C13.0199 20.6604 12.9561 20.8181 12.8583 20.9545C12.7606 21.0909 12.6317 21.202 12.4825 21.2787C12.3332 21.3554 12.1678 21.3954 12 21.3954C11.8322 21.3954 11.6668 21.3554 11.5175 21.2787C11.3683 21.202 11.2394 21.0909 11.1417 20.9545C11.0439 20.8181 10.9801 20.6604 10.9554 20.4944C10.9308 20.3284 10.9461 20.159 11 20.0001ZM20 12.9981L17.066 11.9981L20 10.9981C20.1589 10.9441 20.3284 10.9289 20.4944 10.9535C20.6603 10.9781 20.8181 11.042 20.9545 11.1397C21.0909 11.2375 21.202 11.3663 21.2787 11.5156C21.3553 11.6649 21.3953 11.8302 21.3953 11.9981C21.3953 12.1659 21.3553 12.3312 21.2787 12.4805C21.202 12.6298 21.0909 12.7586 20.9545 12.8564C20.8181 12.9541 20.6603 13.018 20.4944 13.0426C20.3284 13.0672 20.1589 13.052 20 12.9981ZM7.04999 5.63605L8.41699 8.41705L5.63599 7.05005C5.48486 6.97611 5.35357 6.86715 5.25303 6.73224C5.15249 6.59733 5.08561 6.44037 5.05794 6.27441C5.03028 6.10845 5.04263 5.93828 5.09398 5.77806C5.14532 5.61783 5.23417 5.47218 5.35314 5.3532C5.47212 5.23423 5.61777 5.14538 5.778 5.09404C5.93822 5.04269 6.10839 5.03034 6.27435 5.058C6.44031 5.08567 6.59727 5.15255 6.73218 5.25309C6.86709 5.35363 6.97604 5.48492 7.04999 5.63605V5.63605ZM5.63599 16.9491L8.41699 15.5821L7.04999 18.3631C6.97604 18.5142 6.86709 18.6455 6.73218 18.746C6.59727 18.8466 6.44031 18.9134 6.27435 18.9411C6.10839 18.9688 5.93822 18.9564 5.778 18.9051C5.61777 18.8537 5.47212 18.7649 5.35314 18.6459C5.23417 18.5269 5.14532 18.3813 5.09398 18.2211C5.04263 18.0608 5.03028 17.8907 5.05794 17.7247C5.08561 17.5587 5.15249 17.4018 5.25303 17.2669C5.35357 17.132 5.48486 17.023 5.63599 16.9491V16.9491ZM16.949 18.3631L15.582 15.5821L18.363 16.9491C18.5141 17.023 18.6454 17.132 18.746 17.2669C18.8465 17.4018 18.9134 17.5587 18.941 17.7247C18.9687 17.8907 18.9564 18.0608 18.905 18.2211C18.8537 18.3813 18.7648 18.5269 18.6458 18.6459C18.5269 18.7649 18.3812 18.8537 18.221 18.9051C18.0608 18.9564 17.8906 18.9688 17.7246 18.9411C17.5587 18.9134 17.4017 18.8466 17.2668 18.746C17.1319 18.6455 17.0229 18.5142 16.949 18.3631V18.3631ZM18.362 7.04805L15.58 8.41605L16.948 5.63405C17.0219 5.48292 17.1309 5.35163 17.2658 5.25109C17.4007 5.15055 17.5577 5.08367 17.7236 5.056C17.8896 5.02834 18.0598 5.04069 18.22 5.09204C18.3802 5.14338 18.5259 5.23223 18.6448 5.3512C18.7638 5.47018 18.8527 5.61583 18.904 5.77606C18.9554 5.93628 18.9677 6.10645 18.94 6.27241C18.9124 6.43837 18.8455 6.59533 18.745 6.73024C18.6444 6.86515 18.5131 6.9741 18.362 7.04805V7.04805ZM12 16.5001C9.51899 16.5001 7.49999 14.4811 7.49999 12.0001C7.49999 9.51905 9.51899 7.50005 12 7.50005C14.481 7.50005 16.5 9.51905 16.5 12.0001C16.5 14.4811 14.481 16.5001 12 16.5001ZM12 9.50005C10.621 9.50005 9.49999 10.6211 9.49999 12.0001C9.49999 13.3791 10.621 14.5001 12 14.5001C13.379 14.5001 14.5 13.3791 14.5 12.0001C14.5 10.6211 13.379 9.50005 12 9.50005Z" fill="black"/>
</svg>
