<svg width="24" height="24" viewBox="0 0 24 24" fill="none" xmlns="http://www.w3.org/2000/svg">
<path d="M14.5 3.00005L13.5 6.00005L12.5 3.00005C12.4478 2.84186 12.4339 2.67355 12.4594 2.50894C12.4849 2.34434 12.5491 2.18813 12.6467 2.05315C12.7443 1.91818 12.8726 1.80828 13.0209 1.73249C13.1692 1.6567 13.3334 1.61719 13.5 1.61719C13.6666 1.61719 13.8308 1.6567 13.9791 1.73249C14.1274 1.80828 14.2557 1.91818 14.3533 2.05315C14.4509 2.18813 14.5151 2.34434 14.5406 2.50894C14.5661 2.67355 14.5522 2.84186 14.5 3.00005V3.00005ZM19.864 6.05005L17.035 7.46505L18.45 4.63605C18.581 4.3963 18.7998 4.2167 19.0605 4.13502C19.3212 4.05335 19.6034 4.07598 19.8477 4.19815C20.092 4.32032 20.2795 4.5325 20.3705 4.79005C20.4616 5.0476 20.4492 5.33044 20.336 5.57905C20.2338 5.78299 20.0682 5.94827 19.864 6.05005ZM21.5 12L18.5 11L21.5 10C21.6584 9.94729 21.8271 9.93292 21.9922 9.95814C22.1573 9.98335 22.314 10.0474 22.4494 10.1451C22.5849 10.2427 22.6952 10.3712 22.7713 10.5198C22.8474 10.6685 22.887 10.8331 22.887 11C22.887 11.167 22.8474 11.3316 22.7713 11.4803C22.6952 11.6289 22.5849 11.7574 22.4494 11.855C22.314 11.9527 22.1573 12.0167 21.9922 12.042C21.8271 12.0672 21.6584 12.0528 21.5 12V12ZM8.55 4.63605L9.965 7.46505L7.136 6.05005C6.98602 5.97562 6.8559 5.86657 6.75641 5.73189C6.65692 5.59722 6.59091 5.44081 6.56384 5.27557C6.53677 5.11034 6.54942 4.94104 6.60073 4.78166C6.65205 4.62228 6.74057 4.47741 6.85896 4.35901C6.97736 4.24062 7.12223 4.1521 7.28161 4.10078C7.44099 4.04946 7.61029 4.03682 7.77552 4.06389C7.94076 4.09096 8.09717 4.15697 8.23184 4.25646C8.36652 4.35595 8.47557 4.48607 8.55 4.63605V4.63605ZM17.776 12.342C17.915 11.918 18 11.471 18 11C18 8.51905 15.981 6.50005 13.5 6.50005C12.16 6.50005 10.963 7.09405 10.143 8.02805L10 8.00005C9.15531 8.00061 8.32033 8.18011 7.55004 8.52674C6.77975 8.87336 6.09163 9.37923 5.531 10.011C5.3447 9.94226 5.14275 9.92751 4.94843 9.96849C4.75411 10.0095 4.57532 10.1045 4.43266 10.2427C4.29001 10.3809 4.18929 10.5565 4.14211 10.7494C4.09493 10.9423 4.10321 11.1446 4.166 11.333C4.223 11.5 4.324 11.6321 4.443 11.7441C4.1509 12.4603 4.00046 13.2265 4 14L4.002 14.126C3.14343 14.3485 2.38293 14.8495 1.83967 15.5506C1.2964 16.2516 1.00109 17.1131 1 18C1 20.206 2.795 22 5 22H16C18.757 22 21 19.757 21 17C21 14.871 19.656 13.061 17.776 12.342V12.342ZM13.5 8.50005C14.879 8.50005 16 9.62105 16 11C16 11.366 15.904 11.706 15.762 12.019C15.408 12.04 15.042 12.093 14.644 12.207C14.3868 11.5383 13.9888 10.9327 13.4768 10.4315C12.9649 9.93024 12.351 9.54503 11.677 9.30205C11.9091 9.04988 12.1909 8.84845 12.5046 8.71043C12.8184 8.57241 13.1573 8.50078 13.5 8.50005ZM16 20H5C3.896 20 3 19.103 3 18C3 16.897 3.896 16.0001 4.908 15.9941L6.33 16.01L6.082 14.808C5.96299 14.2265 5.97472 13.6258 6.11636 13.0494C6.258 12.4729 6.526 11.9352 6.90097 11.4751C7.27594 11.0149 7.74851 10.6439 8.28448 10.3888C8.82045 10.1337 9.40642 10.0009 10 10L10.069 9.98605C10.9878 10.008 11.8711 10.3448 12.5714 10.94C13.2716 11.5352 13.7463 12.3528 13.916 13.256L13.954 13.442C14.0132 13.6472 14.1375 13.8276 14.3081 13.956C14.4787 14.0845 14.6864 14.154 14.9 14.154L15.189 14.131C15.501 14.041 15.758 14 16 14C17.654 14 19 15.346 19 17C19 18.654 17.654 20 16 20Z" fill="black"/>
</svg>
