<svg width="24" height="24" viewBox="0 0 24 24" fill="none" xmlns="http://www.w3.org/2000/svg">
<path d="M17 18C16.7348 18 16.4804 17.8947 16.2929 17.7071C16.1054 17.5196 16 17.2652 16 17C16 16.7348 16.1054 16.4804 16.2929 16.2929C16.4804 16.1054 16.7348 16 17 16C18.654 16 20 14.654 20 13C20 11.346 18.654 10 17 10C16.757 10 16.5 10.041 16.19 10.13L15.115 10.437L14.93 9.33401C14.7768 8.40247 14.2974 7.55574 13.5775 6.94501C12.8576 6.33429 11.9441 5.99935 11 6.00001C10.4061 6.00058 9.81967 6.13328 9.28335 6.38849C8.74702 6.64371 8.2742 7.01504 7.89914 7.47559C7.52407 7.93614 7.25617 8.47436 7.11484 9.05125C6.97351 9.62814 6.96229 10.2292 7.082 10.811L7.326 12.01L5.906 11.994C4.897 12 4 12.897 4 14C4 15.103 4.897 16 6 16C6.26522 16 6.51957 16.1054 6.70711 16.2929C6.89464 16.4804 7 16.7348 7 17C7 17.2652 6.89464 17.5196 6.70711 17.7071C6.51957 17.8947 6.26522 18 6 18C3.794 18 2 16.206 2 14C2.00103 13.1132 2.2962 12.2518 2.83927 11.5508C3.38234 10.8497 4.14262 10.3486 5.001 10.126L5 10C5 6.69101 7.691 4.00001 11 4.00001C12.2425 3.99795 13.4547 4.38368 14.4675 5.1034C15.4803 5.82313 16.2433 6.84097 16.65 8.01501C19.589 7.77101 22 10.128 22 13C22 15.757 19.757 18 17 18ZM10.5 18L11.5 15L12.5 18C12.5522 18.1582 12.5661 18.3265 12.5406 18.4911C12.5151 18.6557 12.4509 18.8119 12.3533 18.9469C12.2557 19.0819 12.1274 19.1918 11.9791 19.2676C11.8308 19.3434 11.6666 19.3829 11.5 19.3829C11.3334 19.3829 11.1692 19.3434 11.0209 19.2676C10.8726 19.1918 10.7443 19.0819 10.6467 18.9469C10.5491 18.8119 10.4849 18.6557 10.4594 18.4911C10.4339 18.3265 10.4478 18.1582 10.5 18ZM13.5 20L14.5 17L15.5 20C15.5522 20.1582 15.5661 20.3265 15.5406 20.4911C15.5151 20.6557 15.4509 20.8119 15.3533 20.9469C15.2557 21.0819 15.1274 21.1918 14.9791 21.2676C14.8308 21.3434 14.6666 21.3829 14.5 21.3829C14.3334 21.3829 14.1692 21.3434 14.0209 21.2676C13.8726 21.1918 13.7443 21.0819 13.6467 20.9469C13.5491 20.8119 13.4849 20.6557 13.4594 20.4911C13.4339 20.3265 13.4478 20.1582 13.5 20ZM7.5 20L8.5 17L9.5 20C9.55218 20.1582 9.56609 20.3265 9.54058 20.4911C9.51508 20.6557 9.45088 20.8119 9.35327 20.9469C9.25567 21.0819 9.12743 21.1918 8.9791 21.2676C8.83077 21.3434 8.66657 21.3829 8.5 21.3829C8.33343 21.3829 8.16923 21.3434 8.0209 21.2676C7.87257 21.1918 7.74433 21.0819 7.64673 20.9469C7.54912 20.8119 7.48492 20.6557 7.45942 20.4911C7.43391 20.3265 7.44782 20.1582 7.5 20V20Z" fill="black"/>
</svg>
