<svg width="24" height="24" viewBox="0 0 24 24" fill="none" xmlns="http://www.w3.org/2000/svg">
<path d="M20.5 15.134L18.043 14.631L19.526 14.235C19.6529 14.201 19.7718 14.1424 19.876 14.0624C19.9802 13.9824 20.0676 13.8827 20.1332 13.769C20.1989 13.6552 20.2415 13.5297 20.2586 13.3994C20.2757 13.2692 20.267 13.1369 20.233 13.01C20.199 12.8832 20.1403 12.7643 20.0604 12.6601C19.9804 12.5559 19.8807 12.4685 19.7669 12.4028C19.6532 12.3372 19.5276 12.2946 19.3974 12.2775C19.2672 12.2603 19.1349 12.269 19.008 12.3031L17.5 12.706C17.537 12.475 17.571 12.242 17.571 12C17.571 11.758 17.537 11.524 17.5 11.293L19.01 11.697L19.27 11.731C19.5126 11.7309 19.7469 11.6426 19.9292 11.4826C20.1115 11.3225 20.2294 11.1017 20.261 10.8612C20.2925 10.6206 20.2356 10.3768 20.1007 10.1752C19.9659 9.97353 19.7624 9.82777 19.528 9.76505L18.045 9.36805L20.5 8.86605C20.6636 8.83254 20.8169 8.76063 20.9473 8.65626C21.0776 8.55189 21.1813 8.41804 21.2498 8.26574C21.3183 8.11344 21.3496 7.94704 21.3411 7.78026C21.3327 7.61349 21.2848 7.4511 21.2013 7.30648C21.1178 7.16186 21.0011 7.03916 20.8609 6.94847C20.7207 6.85778 20.5609 6.8017 20.3948 6.78486C20.2286 6.76803 20.0609 6.7909 19.9053 6.85161C19.7497 6.91232 19.6108 7.00913 19.5 7.13405L17.837 9.00805L18.235 7.52905C18.2692 7.40219 18.278 7.26985 18.261 7.13959C18.244 7.00932 18.2015 6.88368 18.1359 6.76983C18.0035 6.53991 17.7852 6.37201 17.529 6.30305C17.2728 6.23409 16.9997 6.26974 16.7698 6.40214C16.5399 6.53454 16.372 6.75285 16.303 7.00905L15.896 8.52605C15.5303 8.22384 15.1188 7.9818 14.677 7.80905L15.779 6.70705C15.8719 6.6142 15.9455 6.50398 15.9958 6.38268C16.046 6.26137 16.0719 6.13135 16.0719 6.00005C16.0719 5.86875 16.046 5.73873 15.9958 5.61742C15.9455 5.49612 15.8719 5.38589 15.779 5.29305C15.6862 5.2002 15.5759 5.12656 15.4546 5.07631C15.3333 5.02606 15.2033 5.0002 15.072 5.0002C14.9407 5.0002 14.8107 5.02606 14.6894 5.07631C14.5681 5.12656 14.4579 5.20021 14.365 5.29305L13.279 6.37905L14.072 4.00005C14.1242 3.84186 14.1381 3.67355 14.1126 3.50894C14.0871 3.34434 14.0229 3.18813 13.9253 3.05315C13.8277 2.91818 13.6994 2.80828 13.5511 2.73249C13.4028 2.6567 13.2386 2.61719 13.072 2.61719C12.9054 2.61719 12.7412 2.6567 12.5929 2.73249C12.4446 2.80828 12.3164 2.91818 12.2187 3.05315C12.1211 3.18813 12.0569 3.34434 12.0314 3.50894C12.0059 3.67355 12.0198 3.84186 12.072 4.00005L12.865 6.37905L11.779 5.29305C11.5915 5.10554 11.3372 5.0002 11.072 5.0002C10.8068 5.0002 10.5525 5.10554 10.365 5.29305C10.1775 5.48056 10.0722 5.73487 10.0722 6.00005C10.0722 6.26523 10.1775 6.51954 10.365 6.70705L11.467 7.80905C11.0255 7.98243 10.6141 8.2244 10.248 8.52605L9.84302 7.01105C9.81092 6.88226 9.7535 6.76115 9.67411 6.65478C9.59473 6.5484 9.49496 6.4589 9.38063 6.39148C9.26629 6.32407 9.13968 6.28008 9.00817 6.2621C8.87667 6.24412 8.7429 6.2525 8.61466 6.28675C8.48643 6.321 8.36629 6.38043 8.26127 6.46159C8.15624 6.54274 8.06841 6.644 8.00292 6.75944C7.93742 6.87489 7.89557 7.00222 7.87979 7.13401C7.86401 7.26579 7.87463 7.39941 7.91102 7.52705L8.30702 9.01205L6.64502 7.13505C6.51473 6.98945 6.34664 6.88281 6.15941 6.82697C5.97218 6.77113 5.77314 6.76828 5.58438 6.81873C5.39563 6.86918 5.22455 6.97097 5.09015 7.11277C4.95575 7.25458 4.86328 7.43086 4.82302 7.62205C4.70602 8.19205 5.07402 8.75005 5.64502 8.86705L8.09902 9.37005L6.61902 9.76605C6.38468 9.82877 6.18113 9.97453 6.04628 10.1762C5.91144 10.3778 5.85449 10.6216 5.88606 10.8622C5.91762 11.1027 6.03554 11.3235 6.21785 11.4836C6.40016 11.6436 6.63443 11.7319 6.87702 11.732L7.13702 11.698L8.64502 11.294C8.60092 11.5269 8.5765 11.7631 8.57202 12C8.57202 12.242 8.60602 12.475 8.64302 12.707L7.13502 12.3031C7.00816 12.269 6.87585 12.2603 6.74563 12.2775C6.61541 12.2946 6.48984 12.3372 6.37609 12.4028C6.26234 12.4685 6.16263 12.5559 6.08266 12.6601C6.00269 12.7643 5.94403 12.8832 5.91002 13.01C5.876 13.1369 5.86731 13.2692 5.88443 13.3994C5.90156 13.5297 5.94416 13.6552 6.00981 13.769C6.07546 13.8827 6.16288 13.9824 6.26706 14.0624C6.37124 14.1424 6.49016 14.201 6.61702 14.235L8.10002 14.632L5.64502 15.134C5.45284 15.1726 5.27527 15.2642 5.13233 15.3983C4.98939 15.5324 4.88676 15.7038 4.83603 15.8931C4.78529 16.0825 4.78845 16.2822 4.84517 16.4698C4.90189 16.6575 5.0099 16.8255 5.15702 16.955C5.2605 17.047 5.38111 17.1177 5.51194 17.163C5.64278 17.2084 5.78126 17.2274 5.91948 17.2192C6.05769 17.2109 6.19291 17.1755 6.31741 17.1149C6.44191 17.0543 6.55323 16.9697 6.64502 16.866L8.31002 14.988L7.91202 16.472C7.87799 16.5989 7.86928 16.7312 7.8864 16.8614C7.90351 16.9917 7.94612 17.1172 8.01177 17.231C8.07742 17.3448 8.16484 17.4445 8.26903 17.5244C8.37323 17.6044 8.49215 17.6631 8.61902 17.6971L8.87902 17.7311C9.09897 17.7309 9.31272 17.6582 9.48717 17.5242C9.66163 17.3902 9.78705 17.2025 9.84402 16.99L10.25 15.475C10.616 15.773 11.021 16.019 11.47 16.191L10.366 17.293C10.2732 17.3859 10.1995 17.4961 10.1493 17.6174C10.099 17.7387 10.0732 17.8687 10.0732 18C10.0732 18.1314 10.099 18.2614 10.1493 18.3827C10.1995 18.504 10.2732 18.6142 10.366 18.7071C10.5535 18.8946 10.8078 18.9999 11.073 18.9999C11.2043 18.9999 11.3343 18.974 11.4556 18.9238C11.5769 18.8735 11.6872 18.7999 11.78 18.7071L12.486 18H12.738L12.072 19.9991C12.0198 20.1572 12.0059 20.3255 12.0314 20.4902C12.0569 20.6548 12.1211 20.811 12.2187 20.9459C12.3164 21.0809 12.4446 21.1908 12.5929 21.2666C12.7412 21.3424 12.9054 21.3819 13.072 21.3819C13.2386 21.3819 13.4028 21.3424 13.5511 21.2666C13.6994 21.1908 13.8277 21.0809 13.9253 20.9459C14.0229 20.811 14.0871 20.6548 14.1126 20.4902C14.1381 20.3255 14.1242 20.1572 14.072 19.9991L13.406 18H13.658L14.365 18.7071C14.5525 18.8946 14.8068 18.9999 15.072 18.9999C15.3372 18.9999 15.5915 18.8946 15.779 18.7071C15.9665 18.5195 16.0719 18.2652 16.0719 18C16.0719 17.7349 15.9665 17.4806 15.779 17.293L14.677 16.1901C15.1193 16.0177 15.5312 15.7756 15.897 15.473L16.303 16.99C16.36 17.2025 16.4854 17.3902 16.6599 17.5242C16.8343 17.6582 17.0481 17.7309 17.268 17.7311L17.528 17.6971C17.6549 17.6631 17.7738 17.6044 17.878 17.5244C17.9822 17.4445 18.0696 17.3448 18.1353 17.231C18.2009 17.1172 18.2435 16.9917 18.2606 16.8614C18.2777 16.7312 18.269 16.5989 18.235 16.472L17.838 14.992L19.5 16.866C19.6108 16.991 19.7497 17.0878 19.9053 17.1485C20.0609 17.2092 20.2286 17.2321 20.3948 17.2152C20.5609 17.1984 20.7207 17.1423 20.8609 17.0516C21.0011 16.9609 21.1178 16.8382 21.2013 16.6936C21.2848 16.549 21.3327 16.3866 21.3411 16.2198C21.3496 16.0531 21.3183 15.8867 21.2498 15.7344C21.1813 15.5821 21.0776 15.4482 20.9473 15.3438C20.8169 15.2395 20.6636 15.1676 20.5 15.134V15.134ZM13.072 14.5C11.693 14.5 10.572 13.379 10.572 12C10.572 10.621 11.693 9.50005 13.072 9.50005C14.451 9.50005 15.572 10.621 15.572 12C15.572 13.379 14.451 14.5 13.072 14.5Z" fill="black"/>
</svg>
